<?xml version="1.0" encoding="utf-8"?>
<!-- Generator: Adobe Illustrator 16.0.0, SVG Export Plug-In . SVG Version: 6.00 Build 0)  -->
<!DOCTYPE svg PUBLIC "-//W3C//DTD SVG 1.1//EN" "http://www.w3.org/Graphics/SVG/1.1/DTD/svg11.dtd">
<svg version="1.1" id="Layer_1" xmlns="http://www.w3.org/2000/svg" xmlns:xlink="http://www.w3.org/1999/xlink" x="0px" y="0px"
	 width="1000px" height="1000px" viewBox="0 0 1000 1000" enable-background="new 0 0 1000 1000" xml:space="preserve">
<g>
	<line fill="none" stroke="#000000" stroke-width="40" stroke-miterlimit="10" x1="642.75" y1="736.131" x2="235.75" y2="736.131"/>
	<g>
		
			<text transform="matrix(1 0 0 1 253.6338 309.5723)" stroke="#000000" stroke-width="4" stroke-miterlimit="10" font-family="'NexaBold'" font-size="112.7397">1</text>
		<g>
			
				<text transform="matrix(1 0 0 1 687.1455 752.4092)" stroke="#000000" stroke-width="4" stroke-miterlimit="10" font-family="'NexaBold'" font-size="112.7397">5</text>
		</g>
		
			<line fill="none" stroke="#000000" stroke-width="40" stroke-miterlimit="10" x1="744.25" y1="234.131" x2="744.25" y2="605.131"/>
		
			<line fill="none" stroke="#000000" stroke-width="40" stroke-miterlimit="10" x1="255.25" y1="564.417" x2="255.25" y2="756.132"/>
		
			<line fill="none" stroke="#000000" stroke-width="40" stroke-miterlimit="10" x1="764.25" y1="248.131" x2="357.25" y2="248.131"/>
		<g>
			<path d="M255.25,564.417h95.979c5.345,0,8.018-2.934,8.397-8.067l17.563-211.642h51.922l55.74,123.978
				c6.49,15.037,13.361,34.846,13.361,34.846h0.764c0,0,6.873-19.809,13.362-34.846l55.743-123.978h51.923l17.56,211.642
				c0.383,5.134,3.057,8.067,8.399,8.067h98.156l0.13,40.714H614.661c-17.946,0-24.055-7.336-25.582-24.942l-9.161-115.904
				c-1.527-17.241-0.383-40.348-0.383-40.348h-0.763c0,0-8.018,25.677-14.892,40.348l-45.051,96.099h-40.469l-45.049-96.099
				c-6.873-14.671-14.889-40.714-14.889-40.714h-0.765c0,0,1.147,23.473-0.382,40.714l-8.783,115.904
				c-1.527,17.606-8.017,24.942-25.96,24.942H255.25V564.417z"/>
		</g>
	</g>
</g>
<g>
	
		<text transform="matrix(1 0 0 1 39.5391 908.5781)" stroke="#000000" stroke-width="2" stroke-miterlimit="10" font-family="'Museo-700'" font-size="48" letter-spacing="4">UNCENSORED COMMUNICATIONS</text>
</g>
</svg>
