<?xml version="1.0" encoding="utf-8"?>
<!-- Generator: Adobe Illustrator 16.0.0, SVG Export Plug-In . SVG Version: 6.00 Build 0)  -->
<!DOCTYPE svg PUBLIC "-//W3C//DTD SVG 1.1//EN" "http://www.w3.org/Graphics/SVG/1.1/DTD/svg11.dtd">
<svg version="1.1" id="Layer_1" xmlns="http://www.w3.org/2000/svg" xmlns:xlink="http://www.w3.org/1999/xlink" x="0px" y="0px"
	 width="1000px" height="1000px" viewBox="0 0 1000 1000" enable-background="new 0 0 1000 1000" xml:space="preserve">
<g>
	<line fill="none" stroke="#000000" stroke-width="60.6" stroke-miterlimit="10" x1="716.083" y1="857.21" x2="100" y2="857.21"/>
	<g>
		
			<text transform="matrix(1 0 0 1 127.0713 211.5205)" stroke="#000000" stroke-width="4" stroke-miterlimit="10" font-family="'NexaBold'" font-size="170.6561">1</text>
		<g>
			
				<text transform="matrix(1 0 0 1 783.2852 881.8516)" stroke="#000000" stroke-width="4" stroke-miterlimit="10" font-family="'NexaBold'" font-size="170.6561">5</text>
		</g>
		
			<line fill="none" stroke="#000000" stroke-width="60.6" stroke-miterlimit="10" x1="869.726" y1="97.324" x2="869.726" y2="658.913"/>
		
			<line fill="none" stroke="#000000" stroke-width="60.6" stroke-miterlimit="10" x1="129.518" y1="597.284" x2="129.518" y2="887.486"/>
		
			<line fill="none" stroke="#000000" stroke-width="60.6" stroke-miterlimit="10" x1="900" y1="118.516" x2="283.917" y2="118.516"/>
		<g>
			<path d="M129.518,597.284h145.284c8.091,0,12.137-4.44,12.712-12.212L314.1,264.706h78.595l84.375,187.667
				c9.824,22.763,20.226,52.747,20.226,52.747h1.156c0,0,10.403-29.984,20.227-52.747l84.379-187.667h78.597l26.58,320.366
				c0.58,7.771,4.627,12.212,12.715,12.212h148.581l0.196,61.629H673.564c-27.165,0-36.412-11.104-38.724-37.756l-13.867-175.446
				c-2.313-26.099-0.58-61.075-0.58-61.075h-1.154c0,0-12.137,38.868-22.542,61.075l-68.193,145.467h-61.259l-68.191-145.467
				c-10.403-22.207-22.537-61.629-22.537-61.629h-1.157c0,0,1.736,35.53-0.578,61.629l-13.295,175.446
				c-2.313,26.651-12.136,37.756-39.297,37.756H129.518V597.284z"/>
		</g>
	</g>
</g>
</svg>
