<?xml version="1.0" encoding="utf-8"?>
<!-- Generator: Adobe Illustrator 16.0.0, SVG Export Plug-In . SVG Version: 6.00 Build 0)  -->
<!DOCTYPE svg PUBLIC "-//W3C//DTD SVG 1.1//EN" "http://www.w3.org/Graphics/SVG/1.1/DTD/svg11.dtd">
<svg version="1.1" id="Layer_1" xmlns="http://www.w3.org/2000/svg" xmlns:xlink="http://www.w3.org/1999/xlink" x="0px" y="0px"
	 width="1000px" height="1000px" viewBox="0 0 1000 1000" enable-background="new 0 0 1000 1000" xml:space="preserve">
<rect x="-19" y="-18" fill="#F4F1EC" stroke="#F4F1EC" stroke-miterlimit="10" width="1038" height="1036"/>
<g>
	<line fill="none" stroke="#212121" stroke-width="60.6" stroke-miterlimit="10" x1="716.083" y1="880.235" x2="100" y2="880.235"/>
	<g>
		
			<text transform="matrix(1 0 0 1 127.0713 234.5449)" fill="#212121" stroke="#212121" stroke-width="4" stroke-miterlimit="10" font-family="'NexaBold'" font-size="170.6561">1</text>
		<g>
			<g>
				<path fill="#212121" stroke="#212121" stroke-width="4" stroke-miterlimit="10" d="M878.51,806.751h-64.507v20.99h23.209
					c25.428,0,48.124,10.41,47.954,38.396c0,27.135-22.697,40.104-46.76,40.104c-26.28,0-48.807-9.385-48.978-37.373h22.355
					c0,13.141,15.018,16.553,26.281,16.553c10.922,0,24.745-5.119,24.745-19.283c0.17-13.482-13.312-17.406-25.599-17.406h-45.224
					c0-21.502,0-41.469,0-63.143h86.521V806.751z"/>
			</g>
		</g>
		
			<line fill="none" stroke="#212121" stroke-width="60.6" stroke-miterlimit="10" x1="869.726" y1="120.349" x2="869.726" y2="681.938"/>
		
			<line fill="none" stroke="#212121" stroke-width="60.6" stroke-miterlimit="10" x1="129.518" y1="620.31" x2="129.518" y2="910.511"/>
		<line fill="none" stroke="#212121" stroke-width="60.6" stroke-miterlimit="10" x1="900" y1="141.54" x2="283.917" y2="141.54"/>
		<g>
			<path fill="#212121" d="M129.518,620.31h145.284c8.091,0,12.137-4.441,12.712-12.213L314.1,287.731h78.595l84.375,187.666
				c9.824,22.764,20.226,52.748,20.226,52.748h1.156c0,0,10.403-29.984,20.227-52.748l84.379-187.666h78.597l26.58,320.365
				c0.58,7.771,4.627,12.213,12.715,12.213h148.581l0.196,61.629H673.564c-27.165,0-36.412-11.105-38.724-37.756l-13.867-175.447
				c-2.313-26.098-0.58-61.074-0.58-61.074h-1.154c0,0-12.137,38.867-22.542,61.074l-68.193,145.467h-61.259l-68.191-145.467
				c-10.403-22.207-22.537-61.629-22.537-61.629h-1.157c0,0,1.736,35.531-0.578,61.629l-13.295,175.447
				c-2.313,26.65-12.136,37.756-39.297,37.756H129.518V620.31z"/>
		</g>
	</g>
</g>
</svg>
