<?xml version="1.0" encoding="utf-8"?>
<!-- Generator: Adobe Illustrator 16.0.0, SVG Export Plug-In . SVG Version: 6.00 Build 0)  -->
<!DOCTYPE svg PUBLIC "-//W3C//DTD SVG 1.1//EN" "http://www.w3.org/Graphics/SVG/1.1/DTD/svg11.dtd">
<svg version="1.1" id="Layer_1" xmlns="http://www.w3.org/2000/svg" xmlns:xlink="http://www.w3.org/1999/xlink" x="0px" y="0px"
	 width="1000px" height="1000px" viewBox="0 0 1000 1000" enable-background="new 0 0 1000 1000" xml:space="preserve">
<g>
	
		<text transform="matrix(1 0 0 1 356.0371 757.8701)" stroke="#000000" stroke-width="2" stroke-miterlimit="10" font-family="'Museo-700'" font-size="72" letter-spacing="7">1M5.IO</text>
</g>
<g>
	<line fill="none" stroke="#000000" stroke-width="60.6" stroke-miterlimit="10" x1="716.083" y1="856.771" x2="100" y2="856.771"/>
	<g>
		
			<text transform="matrix(1 0 0 1 127.0713 211.082)" stroke="#000000" stroke-width="4" stroke-miterlimit="10" font-family="'NexaBold'" font-size="170.6561">1</text>
		<g>
			
				<text transform="matrix(1 0 0 1 783.2852 881.4131)" stroke="#000000" stroke-width="4" stroke-miterlimit="10" font-family="'NexaBold'" font-size="170.6561">5</text>
		</g>
		
			<line fill="none" stroke="#000000" stroke-width="60.6" stroke-miterlimit="10" x1="869.726" y1="96.885" x2="869.726" y2="658.475"/>
		
			<line fill="none" stroke="#000000" stroke-width="60.6" stroke-miterlimit="10" x1="129.518" y1="596.846" x2="129.518" y2="887.047"/>
		
			<line fill="none" stroke="#000000" stroke-width="60.6" stroke-miterlimit="10" x1="900" y1="118.076" x2="283.917" y2="118.076"/>
		<g>
			<path d="M129.518,596.846h145.284c8.091,0,12.137-4.441,12.712-12.213L314.1,264.268h78.595l84.375,187.666
				c9.824,22.764,20.226,52.748,20.226,52.748h1.156c0,0,10.403-29.984,20.227-52.748l84.379-187.666h78.597l26.58,320.365
				c0.58,7.771,4.627,12.213,12.715,12.213h148.581l0.196,61.629H673.564c-27.165,0-36.412-11.105-38.724-37.756l-13.867-175.447
				c-2.313-26.098-0.58-61.074-0.58-61.074h-1.154c0,0-12.137,38.867-22.542,61.074l-68.193,145.467h-61.259l-68.191-145.467
				c-10.403-22.207-22.537-61.629-22.537-61.629h-1.157c0,0,1.736,35.531-0.578,61.629l-13.295,175.447
				c-2.313,26.65-12.136,37.756-39.297,37.756H129.518V596.846z"/>
		</g>
	</g>
</g>
</svg>
