<?xml version="1.0" encoding="utf-8"?>
<!-- Generator: Adobe Illustrator 16.0.0, SVG Export Plug-In . SVG Version: 6.00 Build 0)  -->
<!DOCTYPE svg PUBLIC "-//W3C//DTD SVG 1.1//EN" "http://www.w3.org/Graphics/SVG/1.1/DTD/svg11.dtd">
<svg version="1.1" id="Layer_1" xmlns="http://www.w3.org/2000/svg" xmlns:xlink="http://www.w3.org/1999/xlink" x="0px" y="0px"
	 width="1303.503px" height="1303.503px" viewBox="0 0 1303.503 1303.503" enable-background="new 0 0 1303.503 1303.503"
	 xml:space="preserve">
<path fill="#FFFFFF" d="M1295.853,651.247c0,355.316-288.043,643.357-643.357,643.357c-355.316,0-643.354-288.041-643.354-643.357
	c0-355.314,288.037-643.354,643.354-643.354C1007.81,7.894,1295.853,295.933,1295.853,651.247z"/>
<g>
	
		<line fill="none" stroke="#000000" stroke-width="60.6" stroke-miterlimit="10" x1="868.579" y1="1008.02" x2="252.497" y2="1008.02"/>
	<g>
		
			<text transform="matrix(1 0 0 1 279.5684 362.3301)" stroke="#000000" stroke-width="4" stroke-miterlimit="10" font-family="'NexaBold'" font-size="170.6561">1</text>
		<g>
			
				<text transform="matrix(1 0 0 1 935.7822 1032.6611)" stroke="#000000" stroke-width="4" stroke-miterlimit="10" font-family="'NexaBold'" font-size="170.6561">5</text>
		</g>
		
			<line fill="none" stroke="#000000" stroke-width="60.6" stroke-miterlimit="10" x1="1022.222" y1="248.134" x2="1022.222" y2="809.723"/>
		
			<line fill="none" stroke="#000000" stroke-width="60.6" stroke-miterlimit="10" x1="282.015" y1="748.094" x2="282.015" y2="1038.296"/>
		
			<line fill="none" stroke="#000000" stroke-width="60.6" stroke-miterlimit="10" x1="1052.497" y1="269.325" x2="436.413" y2="269.325"/>
		<g>
			<path d="M282.015,748.094h145.283c8.092,0,12.137-4.44,12.713-12.212l26.586-320.366h78.594l84.375,187.667
				c9.824,22.763,20.227,52.747,20.227,52.747h1.156c0,0,10.402-29.984,20.227-52.747l84.379-187.667h78.596l26.58,320.366
				c0.58,7.771,4.627,12.212,12.715,12.212h148.582l0.195,61.629h-196.16c-27.166,0-36.412-11.104-38.725-37.756L773.47,596.521
				c-2.313-26.099-0.58-61.075-0.58-61.075h-1.154c0,0-12.137,38.868-22.541,61.075l-68.193,145.467h-61.26L551.55,596.521
				c-10.402-22.207-22.537-61.629-22.537-61.629h-1.156c0,0,1.736,35.53-0.578,61.629l-13.295,175.446
				c-2.313,26.651-12.137,37.756-39.297,37.756H282.015V748.094z"/>
		</g>
	</g>
</g>
</svg>
