<?xml version="1.0" encoding="utf-8"?>
<!-- Generator: Adobe Illustrator 16.0.0, SVG Export Plug-In . SVG Version: 6.00 Build 0)  -->
<!DOCTYPE svg PUBLIC "-//W3C//DTD SVG 1.1//EN" "http://www.w3.org/Graphics/SVG/1.1/DTD/svg11.dtd">
<svg version="1.1" id="Layer_1" xmlns="http://www.w3.org/2000/svg" xmlns:xlink="http://www.w3.org/1999/xlink" x="0px" y="0px"
	 width="1303.503px" height="1303.503px" viewBox="0 0 1303.503 1303.503" enable-background="new 0 0 1303.503 1303.503"
	 xml:space="preserve">
<path stroke="#000000" stroke-miterlimit="10" d="M1295.355,651.75c0,355.316-288.043,643.357-643.357,643.357
	c-355.316,0-643.354-288.041-643.354-643.357c0-355.314,288.037-643.354,643.354-643.354
	C1007.313,8.396,1295.355,296.436,1295.355,651.75z"/>
<g>
	
		<line fill="none" stroke="#FFFFFF" stroke-width="60.6" stroke-miterlimit="10" x1="868.082" y1="1008.522" x2="252" y2="1008.522"/>
	<g>
		
			<text transform="matrix(1 0 0 1 279.0713 362.833)" fill="#FFFFFF" stroke="#FFFFFF" stroke-width="4" stroke-miterlimit="10" font-family="'NexaBold'" font-size="170.6561">1</text>
		<g>
			
				<text transform="matrix(1 0 0 1 935.2852 1033.1641)" fill="#FFFFFF" stroke="#FFFFFF" stroke-width="4" stroke-miterlimit="10" font-family="'NexaBold'" font-size="170.6561">5</text>
		</g>
		
			<line fill="none" stroke="#FFFFFF" stroke-width="60.6" stroke-miterlimit="10" x1="1021.725" y1="248.637" x2="1021.725" y2="810.226"/>
		
			<line fill="none" stroke="#FFFFFF" stroke-width="60.6" stroke-miterlimit="10" x1="281.518" y1="748.597" x2="281.518" y2="1038.799"/>
		
			<line fill="none" stroke="#FFFFFF" stroke-width="60.6" stroke-miterlimit="10" x1="1052" y1="269.828" x2="435.916" y2="269.828"/>
		<g>
			<path fill="#FFFFFF" d="M281.518,748.597h145.283c8.092,0,12.137-4.44,12.713-12.212L466.1,416.019h78.594l84.375,187.667
				c9.824,22.763,20.227,52.747,20.227,52.747h1.156c0,0,10.402-29.984,20.227-52.747l84.379-187.667h78.596l26.58,320.366
				c0.58,7.771,4.627,12.212,12.715,12.212h148.582l0.195,61.629h-196.16c-27.166,0-36.412-11.104-38.725-37.756l-13.867-175.446
				c-2.313-26.099-0.58-61.075-0.58-61.075h-1.154c0,0-12.137,38.868-22.541,61.075L680.504,742.49h-61.26l-68.191-145.467
				c-10.402-22.207-22.537-61.629-22.537-61.629h-1.156c0,0,1.736,35.53-0.578,61.629L513.486,772.47
				c-2.313,26.651-12.137,37.756-39.297,37.756H281.518V748.597z"/>
		</g>
	</g>
</g>
</svg>
