<?xml version="1.0" encoding="utf-8"?>
<!-- Generator: Adobe Illustrator 16.0.0, SVG Export Plug-In . SVG Version: 6.00 Build 0)  -->
<!DOCTYPE svg PUBLIC "-//W3C//DTD SVG 1.1//EN" "http://www.w3.org/Graphics/SVG/1.1/DTD/svg11.dtd">
<svg version="1.1" id="Layer_1" xmlns="http://www.w3.org/2000/svg" xmlns:xlink="http://www.w3.org/1999/xlink" x="0px" y="0px"
	 width="1303.503px" height="1303.503px" viewBox="0 0 1303.503 1303.503" enable-background="new 0 0 1303.503 1303.503"
	 xml:space="preserve">
<path fill="#F4F1EC" d="M1295.107,651.75c0,355.316-288.043,643.357-643.357,643.357c-355.316,0-643.354-288.041-643.354-643.357
	C8.396,296.436,296.434,8.396,651.75,8.396C1007.064,8.396,1295.107,296.436,1295.107,651.75z"/>
<g>
	
		<line fill="none" stroke="#212121" stroke-width="60.6" stroke-miterlimit="10" x1="867.834" y1="1019.188" x2="251.752" y2="1019.188"/>
	<g>
		<path fill="#212121" stroke="#212121" stroke-width="4" stroke-miterlimit="10" d="M280.359,354.385h17.918v-79.867h-18.602
			v-20.479h40.957v100.346h16.555v19.113h-56.828V354.385z"/>
	</g>
	<g>
		<g>
			<path fill="#212121" stroke="#212121" stroke-width="4" stroke-miterlimit="10" d="M1030.262,945.703h-64.508v20.99h23.209
				c25.428,0,48.125,10.41,47.955,38.396c0,27.135-22.697,40.104-46.76,40.104c-26.281,0-48.807-9.385-48.979-37.373h22.355
				c0,13.141,15.018,16.553,26.281,16.553c10.922,0,24.746-5.119,24.746-19.283c0.17-13.482-13.313-17.406-25.6-17.406H943.74
				c0-21.502,0-41.469,0-63.143h86.521V945.703z"/>
		</g>
	</g>
	
		<line fill="none" stroke="#212121" stroke-width="60.6" stroke-miterlimit="10" x1="1021.477" y1="259.301" x2="1021.477" y2="820.891"/>
	
		<line fill="none" stroke="#212121" stroke-width="60.6" stroke-miterlimit="10" x1="281.27" y1="759.262" x2="281.27" y2="1049.463"/>
	
		<line fill="none" stroke="#212121" stroke-width="60.6" stroke-miterlimit="10" x1="1051.752" y1="280.492" x2="435.668" y2="280.492"/>
	<g>
		<path fill="#212121" d="M281.27,759.262h145.283c8.092,0,12.137-4.441,12.713-12.213l26.586-320.365h78.594L628.82,614.35
			c9.824,22.764,20.227,52.748,20.227,52.748h1.156c0,0,10.402-29.984,20.227-52.748l84.379-187.666h78.596l26.58,320.365
			c0.58,7.771,4.627,12.213,12.715,12.213h148.582l0.195,61.629h-196.16c-27.166,0-36.412-11.105-38.725-37.756l-13.867-175.447
			c-2.313-26.098-0.58-61.074-0.58-61.074h-1.154c0,0-12.137,38.867-22.541,61.074l-68.193,145.467h-61.26l-68.191-145.467
			c-10.402-22.207-22.537-61.629-22.537-61.629h-1.156c0,0,1.736,35.531-0.578,61.629l-13.295,175.447
			c-2.313,26.65-12.137,37.756-39.297,37.756H281.27V759.262z"/>
	</g>
</g>
<g>
	<g>
		<path fill="#212121" stroke="#212121" stroke-width="2" stroke-miterlimit="10" d="M491.688,1182.435h13.768v-35.451
			c0-2.16,0.09-4.32,0.09-4.32h-0.181c0,0-0.72,1.531-2.789,3.6l-5.129,4.859l-6.839-7.199l16.017-15.387h10.618v53.898h13.767
			v9.988h-39.321V1182.435z"/>
		<path fill="#212121" stroke="#212121" stroke-width="2" stroke-miterlimit="10" d="M540.004,1182.435h2.789
			c1.26,0,1.89-0.719,1.979-1.979l4.139-51.92h12.238l13.137,30.414c1.53,3.689,3.149,8.549,3.149,8.549h0.18
			c0,0,1.62-4.859,3.149-8.549l13.138-30.414h12.237l4.139,51.92c0.091,1.26,0.72,1.979,1.979,1.979h2.79v9.988H604.88
			c-4.229,0-5.669-1.799-6.028-6.119l-2.16-28.434c-0.359-4.229-0.09-9.896-0.09-9.896h-0.18c0,0-1.89,6.297-3.51,9.896
			l-10.617,23.576h-9.538l-10.618-23.576c-1.619-3.6-3.509-9.988-3.509-9.988h-0.181c0,0,0.271,5.76-0.09,9.988l-2.069,28.434
			c-0.36,4.32-1.89,6.119-6.119,6.119h-10.167V1182.435z"/>
		<path fill="#212121" stroke="#212121" stroke-width="2" stroke-miterlimit="10" d="M631.328,1175.776c0,0,5.488,6.75,14.847,6.75
			c7.108,0,11.697-4.77,11.697-10.619c0-7.107-6.479-10.887-13.767-10.887c-7.019,0-12.058,2.879-12.058,2.879l-4.139-2.07
			l2.339-27.174c0.36-4.229,1.8-6.119,6.029-6.119h23.574c4.229,0,6.119,1.891,6.119,6.119v9.719h-10.708v-3.869
			c0-1.26-0.72-1.98-1.979-1.98h-10.527c-1.26,0-1.89,0.721-1.979,1.98l-0.811,8.818c-0.18,1.709-0.449,2.969-0.449,2.969h0.18
			c0,0,2.97-1.17,6.749-1.17c14.666,0,23.395,9.268,23.395,20.965c0,11.158-8.729,21.506-23.665,21.506
			c-13.497,0-20.785-8.908-20.785-8.908L631.328,1175.776z"/>
		<path fill="#212121" stroke="#212121" stroke-width="2" stroke-miterlimit="10" d="M684.412,1180.995h11.067v11.428h-11.067
			V1180.995z"/>
		<path fill="#212121" stroke="#212121" stroke-width="2" stroke-miterlimit="10" d="M709.784,1182.435h6.389v-43.91h-6.389v-9.988
			h23.936v9.988h-6.389v43.91h6.389v9.988h-23.936V1182.435z"/>
		<path fill="#212121" stroke="#212121" stroke-width="2" stroke-miterlimit="10" d="M777.357,1127.456
			c18.806,0,33.022,14.309,33.022,32.574c0,18.807-14.217,33.473-33.022,33.473c-18.807,0-33.023-14.666-33.023-33.473
			C744.334,1141.765,758.551,1127.456,777.357,1127.456z M777.357,1182.526c11.518,0,20.785-9.719,20.785-22.496
			c0-12.238-9.268-21.596-20.785-21.596s-20.786,9.357-20.786,21.596C756.571,1172.808,765.84,1182.526,777.357,1182.526z"/>
	</g>
</g>
</svg>
