<?xml version="1.0" encoding="utf-8"?>
<!-- Generator: Adobe Illustrator 16.0.0, SVG Export Plug-In . SVG Version: 6.00 Build 0)  -->
<!DOCTYPE svg PUBLIC "-//W3C//DTD SVG 1.1//EN" "http://www.w3.org/Graphics/SVG/1.1/DTD/svg11.dtd">
<svg version="1.1" id="Layer_1" xmlns="http://www.w3.org/2000/svg" xmlns:xlink="http://www.w3.org/1999/xlink" x="0px" y="0px"
	 width="2183.563px" height="1000px" viewBox="0 0 2183.563 1000" enable-background="new 0 0 2183.563 1000" xml:space="preserve">
<rect x="-16.217" y="-12.37" stroke="#000000" stroke-miterlimit="10" width="2227.859" height="1036"/>
<g>
	<g>
		<g>
			<path fill="#FFFFFF" stroke="#FFFFFF" stroke-width="2" stroke-miterlimit="10" d="M673.045,578.35h64.186
				c11.335,0,17.003-6.48,17.815-17.814l37.255-467.291h110.14l118.234,273.734c13.772,33.201,28.348,76.936,28.348,76.936h1.614
				c0,0,14.574-43.734,28.348-76.936l118.234-273.734h110.14l37.255,467.291c0.813,11.334,6.479,17.814,17.814,17.814h120.277
				l17.573,89.887h-204.255c-38.068,0-51.028-16.189-54.257-55.07l-19.44-255.908c-3.24-38.068-0.813-89.086-0.813-89.086h-1.615
				c0,0-17.013,56.686-31.588,89.086l-95.564,212.174h-85.834l-95.564-212.174c-14.575-32.4-31.588-89.887-31.588-89.887h-1.614
				c0,0,2.427,51.818-0.813,89.887l-18.628,255.908c-3.24,38.881-17.002,55.07-55.069,55.07H691.211L673.045,578.35z"/>
		</g>
	</g>
	<g>
		<g>
			<path fill="#FFFFFF" stroke="#FFFFFF" stroke-width="2" stroke-miterlimit="10" d="M302.011,577.537h85.032v-379.01h-88.272
				V101.35h194.358v476.188h111.732l18.046,90.699H302.011V577.537z"/>
		</g>
	</g>
	<g>
		<g>
			<g>
				<path fill="#FFFFFF" stroke="#FFFFFF" stroke-width="2" stroke-miterlimit="10" d="M1669.573,578.02
					c51.818,0,112.533-30.863,112.533-98.08c0.813-63.965-63.165-82.594-121.474-82.594h-214.612c0-102.045,0-196.797,0-299.643
					h410.597v100.408h-306.124v99.617h110.14c120.661,0,228.374,49.402,227.561,182.211c0,128.768-99.519,188.297-213.7,188.297"/>
			</g>
		</g>
		<g>
			<g>
				<path fill="#FFFFFF" stroke="#FFFFFF" stroke-width="2" stroke-miterlimit="10" d="M1675.724,668.236h-111.007l-16.991-89.283
					l123.022-0.934"/>
			</g>
		</g>
	</g>
	<g>
		
			<text transform="matrix(1 0 0 1 284.8984 885.4316)" fill="#FFFFFF" stroke="#FFFFFF" stroke-width="2" stroke-miterlimit="10" font-family="'Museo-700'" font-size="89.9744" letter-spacing="4">UNCENSORED COMMUNICATIONS</text>
	</g>
</g>
</svg>
