<?xml version="1.0" encoding="utf-8"?>
<!-- Generator: Adobe Illustrator 16.0.0, SVG Export Plug-In . SVG Version: 6.00 Build 0)  -->
<!DOCTYPE svg PUBLIC "-//W3C//DTD SVG 1.1//EN" "http://www.w3.org/Graphics/SVG/1.1/DTD/svg11.dtd">
<svg version="1.1" id="Layer_1" xmlns="http://www.w3.org/2000/svg" xmlns:xlink="http://www.w3.org/1999/xlink" x="0px" y="0px"
	 width="2183.563px" height="1000px" viewBox="0 0 2183.563 1000" enable-background="new 0 0 2183.563 1000" xml:space="preserve">
<g>
	<g>
		<g>
			<path stroke="#000000" stroke-width="2" stroke-miterlimit="10" d="M706.451,697.609h64.187c11.335,0,17.003-6.48,17.815-17.814
				l37.256-467.291h110.139l118.234,273.734c13.772,33.201,28.348,76.936,28.348,76.936h1.614c0,0,14.574-43.734,28.348-76.936
				l118.235-273.734h110.139l37.254,467.291c0.814,11.334,6.48,17.814,17.816,17.814h120.276l17.573,89.887h-204.255
				c-38.068,0-51.028-16.189-54.257-55.07l-19.44-255.908c-3.24-38.068-0.813-89.086-0.813-89.086h-1.614
				c0,0-17.013,56.686-31.589,89.086l-95.564,212.174h-85.834l-95.563-212.174c-14.575-32.4-31.587-89.887-31.587-89.887h-1.615
				c0,0,2.427,51.818-0.813,89.887l-18.628,255.908c-3.24,38.881-17.002,55.07-55.069,55.07H724.618L706.451,697.609z"/>
		</g>
	</g>
	<g>
		<g>
			<path stroke="#000000" stroke-width="2" stroke-miterlimit="10" d="M335.418,696.797h85.032v-379.01h-88.272v-97.178h194.357
				v476.188h111.733l18.046,90.699H335.418V696.797z"/>
		</g>
	</g>
	<g>
		<g>
			<g>
				<path stroke="#000000" stroke-width="2" stroke-miterlimit="10" d="M1702.98,697.279c51.818,0,112.533-30.863,112.533-98.08
					c0.813-63.965-63.164-82.594-121.474-82.594h-214.612c0-102.045,0-196.797,0-299.643h410.596v100.408H1583.9v99.617h110.14
					c120.661,0,228.374,49.402,227.561,182.211c0,128.768-99.519,188.297-213.7,188.297"/>
			</g>
		</g>
		<g>
			<g>
				<path stroke="#000000" stroke-width="2" stroke-miterlimit="10" d="M1709.131,787.496h-111.006l-16.992-89.283l123.022-0.934"/>
			</g>
		</g>
	</g>
</g>
</svg>
